<?xml version="1.0" encoding="UTF-8" standalone="no"?>
<!DOCTYPE svg PUBLIC "-//W3C//DTD SVG 1.1//EN"
 "http://www.w3.org/Graphics/SVG/1.1/DTD/svg11.dtd">
<!-- Generated by graphviz version 2.47.0 (20210316.0004)
 -->
<!-- Title: dependencies Pages: 1 -->
<svg width="630pt" height="298pt"
 viewBox="0.00 0.00 630.00 298.00" xmlns="http://www.w3.org/2000/svg" xmlns:xlink="http://www.w3.org/1999/xlink">
<g id="graph0" class="graph" transform="scale(1 1) rotate(0) translate(4 294)">
<title>dependencies</title>
<polygon fill="white" stroke="transparent" points="-4,4 -4,-294 626,-294 626,4 -4,4"/>
<text text-anchor="start" x="290.01" y="-42.4" font-family="Times-12" font-weight="bold" font-size="14.00">Legend</text>
<polygon fill="#ffffb3" stroke="transparent" points="77,-10 77,-30 97,-30 97,-10 77,-10"/>
<text text-anchor="start" x="100.63" y="-15.4" font-family="Times-12" font-size="14.00"> &#160;Declarations</text>
<polygon fill="#8dd3c7" stroke="transparent" points="190,-10 190,-30 210,-30 210,-10 190,-10"/>
<text text-anchor="start" x="213.73" y="-15.4" font-family="Times-12" font-size="14.00"> &#160;Module</text>
<polygon fill="#80b1d3" stroke="transparent" points="276,-10 276,-30 296,-30 296,-10 276,-10"/>
<text text-anchor="start" x="299.78" y="-15.4" font-family="Times-12" font-size="14.00"> &#160;Bootstrap</text>
<polygon fill="#fdb462" stroke="transparent" points="373,-10 373,-30 393,-30 393,-10 373,-10"/>
<text text-anchor="start" x="396.67" y="-15.4" font-family="Times-12" font-size="14.00"> &#160;Providers</text>
<polygon fill="#fb8072" stroke="transparent" points="469,-10 469,-30 489,-30 489,-10 469,-10"/>
<text text-anchor="start" x="492.73" y="-15.4" font-family="Times-12" font-size="14.00"> &#160;Exports</text>
<g id="clust1" class="cluster">
<title>cluster_AppModule</title>
<polygon fill="none" stroke="black" stroke-dasharray="1,5" points="33,-146 33,-274 316,-274 316,-146 33,-146"/>
</g>
<g id="clust3" class="cluster">
<title>cluster_AppModule_imports</title>
<polygon fill="none" stroke="black" points="41,-154 41,-206 308,-206 308,-154 41,-154"/>
</g>
<g id="clust7" class="cluster">
<title>cluster_PrismaModule</title>
<polygon fill="none" stroke="black" stroke-dasharray="1,5" points="324,-214 324,-282 614,-282 614,-214 324,-214"/>
</g>
<g id="clust10" class="cluster">
<title>cluster_PrismaModule_exports</title>
<polygon fill="none" stroke="black" points="490,-222 490,-274 606,-274 606,-222 490,-222"/>
</g>
<g id="clust12" class="cluster">
<title>cluster_PrismaModule_providers</title>
<polygon fill="none" stroke="black" points="332,-222 332,-274 482,-274 482,-222 332,-222"/>
</g>
<g id="clust13" class="cluster">
<title>cluster_WeatherSyncModule</title>
<polygon fill="none" stroke="black" stroke-dasharray="1,5" points="8,-70 8,-138 224,-138 224,-70 8,-70"/>
</g>
<g id="clust18" class="cluster">
<title>cluster_WeatherSyncModule_providers</title>
<polygon fill="none" stroke="black" points="16,-78 16,-130 216,-130 216,-78 16,-78"/>
</g>
<!-- PrismaModule -->
<g id="node1" class="node">
<title>PrismaModule</title>
<polygon fill="#8dd3c7" stroke="black" points="300.43,-198 297.43,-202 276.43,-202 273.43,-198 201.57,-198 201.57,-162 300.43,-162 300.43,-198"/>
<text text-anchor="middle" x="251" y="-175.8" font-family="Times,serif" font-size="14.00">PrismaModule</text>
</g>
<!-- AppModule -->
<g id="node3" class="node">
<title>AppModule</title>
<polygon fill="#8dd3c7" stroke="black" points="224.66,-266 221.66,-270 200.66,-270 197.66,-266 141.34,-266 141.34,-230 224.66,-230 224.66,-266"/>
<text text-anchor="middle" x="183" y="-243.8" font-family="Times,serif" font-size="14.00">AppModule</text>
</g>
<!-- PrismaModule&#45;&gt;AppModule -->
<g id="edge1" class="edge">
<title>PrismaModule&#45;&gt;AppModule</title>
<path fill="none" stroke="black" d="M213.31,-198.22C213.31,-198.22 213.31,-219.73 213.31,-219.73"/>
<polygon fill="black" stroke="black" points="209.81,-219.73 213.31,-229.73 216.81,-219.73 209.81,-219.73"/>
</g>
<!-- PrismaService  -->
<g id="node4" class="node">
<title>PrismaService </title>
<polygon fill="#fb8072" stroke="black" points="598.36,-266 497.64,-266 497.64,-230 598.36,-230 598.36,-266"/>
<text text-anchor="middle" x="548" y="-243.8" font-family="Times,serif" font-size="14.00">PrismaService </text>
</g>
<!-- PrismaModule&#45;&gt;PrismaService  -->
<g id="edge3" class="edge">
<title>PrismaModule&#45;&gt;PrismaService </title>
<path fill="none" stroke="black" stroke-dasharray="5,2" d="M300.38,-180C384.83,-180 548,-180 548,-180 548,-180 548,-219.78 548,-219.78"/>
<polygon fill="black" stroke="black" points="544.5,-219.78 548,-229.78 551.5,-219.78 544.5,-219.78"/>
</g>
<!-- WeatherSyncModule -->
<g id="node2" class="node">
<title>WeatherSyncModule</title>
<polygon fill="#8dd3c7" stroke="black" points="183.46,-198 180.46,-202 159.46,-202 156.46,-198 48.54,-198 48.54,-162 183.46,-162 183.46,-198"/>
<text text-anchor="middle" x="116" y="-175.8" font-family="Times,serif" font-size="14.00">WeatherSyncModule</text>
</g>
<!-- WeatherSyncModule&#45;&gt;AppModule -->
<g id="edge2" class="edge">
<title>WeatherSyncModule&#45;&gt;AppModule</title>
<path fill="none" stroke="black" d="M162.33,-198.22C162.33,-198.22 162.33,-219.73 162.33,-219.73"/>
<polygon fill="black" stroke="black" points="158.83,-219.73 162.33,-229.73 165.83,-219.73 158.83,-219.73"/>
</g>
<!-- PrismaService -->
<g id="node5" class="node">
<title>PrismaService</title>
<ellipse fill="#fdb462" stroke="black" cx="407" cy="-248" rx="66.63" ry="18"/>
<text text-anchor="middle" x="407" y="-243.8" font-family="Times,serif" font-size="14.00">PrismaService</text>
</g>
<!-- PrismaService&#45;&gt;PrismaModule -->
<g id="edge4" class="edge">
<title>PrismaService&#45;&gt;PrismaModule</title>
<path fill="none" stroke="black" d="M339.84,-248C302.11,-248 262.52,-248 262.52,-248 262.52,-248 262.52,-208.22 262.52,-208.22"/>
<polygon fill="black" stroke="black" points="266.02,-208.22 262.52,-198.22 259.02,-208.22 266.02,-208.22"/>
</g>
<!-- WeatherSyncService -->
<g id="node6" class="node">
<title>WeatherSyncService</title>
<ellipse fill="#fdb462" stroke="black" cx="116" cy="-104" rx="92.01" ry="18"/>
<text text-anchor="middle" x="116" y="-99.8" font-family="Times,serif" font-size="14.00">WeatherSyncService</text>
</g>
<!-- WeatherSyncService&#45;&gt;WeatherSyncModule -->
<g id="edge5" class="edge">
<title>WeatherSyncService&#45;&gt;WeatherSyncModule</title>
<path fill="none" stroke="black" d="M116,-122.01C116,-122.01 116,-151.85 116,-151.85"/>
<polygon fill="black" stroke="black" points="112.5,-151.85 116,-161.85 119.5,-151.85 112.5,-151.85"/>
</g>
</g>
</svg>
